<?xml version="1.0" encoding="UTF-8"?>
<svg width="1400px" height="680px" viewBox="0 0 1400 680" version="1.1" xmlns="http://www.w3.org/2000/svg" xmlns:xlink="http://www.w3.org/1999/xlink">
    <!-- Generator: Sketch 55.2 (78181) - https://sketchapp.com -->
    <title>kt dsl deps</title>
    <desc>Created with Sketch.</desc>
    <defs>
        <radialGradient cx="37.6955793%" cy="31.3397567%" fx="37.6955793%" fy="31.3397567%" r="59.3522282%" gradientTransform="translate(0.376956,0.313398),scale(0.499933,1.000000),rotate(-4.371384),translate(-0.376956,-0.313398)" id="radialGradient-1">
            <stop stop-color="#A1C16A" offset="0%"></stop>
            <stop stop-color="#21CB98" offset="100%"></stop>
        </radialGradient>
        <linearGradient x1="100%" y1="49.9965278%" x2="0%" y2="50.0034722%" id="linearGradient-2">
            <stop stop-color="#FCEABB" offset="0%"></stop>
            <stop stop-color="#F8B500" offset="100%"></stop>
        </linearGradient>
        <linearGradient x1="3.33066907e-14%" y1="62.5%" x2="75.3992372%" y2="50%" id="linearGradient-3">
            <stop stop-color="#2AA2DC" offset="0%"></stop>
            <stop stop-color="#7B69E5" offset="100%"></stop>
        </linearGradient>
        <linearGradient x1="0%" y1="100%" x2="50%" y2="0%" id="linearGradient-4">
            <stop stop-color="#BA5DB4" offset="0%"></stop>
            <stop stop-color="#F58B0F" offset="100%"></stop>
        </linearGradient>
        <linearGradient x1="0%" y1="50%" x2="100%" y2="0%" id="linearGradient-5">
            <stop stop-color="#2AA2DC" offset="0%"></stop>
            <stop stop-color="#7B69E5" offset="100%"></stop>
        </linearGradient>
    </defs>
    <g id="kt-dsl-deps" stroke="none" stroke-width="1" fill="none" fill-rule="evenodd">
        <g id="bg">
            <rect fill="url(#radialGradient-1)" x="0" y="0" width="1400" height="699.906396"></rect>
            <polygon id="Path-9" fill="#1CC794" points="1400 174.976599 1290.625 240.592824 953.756609 1.09360374 591.71875 1.09360374 131.25 284.336973 0 153.104524 0 697.719189 1398.90796 697.719189"></polygon>
            <polygon id="Path-10" fill="#16C390" points="132.34375 285.430577 67.8125 371.825273 67.8125 542.427457 172.8125 413.929017 324.84375 352.140406 656.25 393.697348 678.125 481.185647 765.625 459.313573 831.25 542.427457 875 612.418097 918.75 524.929797 1006.25 503.057722 1050 546.801872 1115.625 503.057722 1137.5 371.825273 1159.375 330.268331 1286.25 389.322933 1395.625 259.184087 1293.90625 240.592824 1032.5 57.9609984 943.90625 170.602184 861.875 89.675507 770 182.631825 656.25 48.1185647 562.1875 146.542902 448.4375 89.675507"></polygon>
            <polygon id="Path-12" fill-opacity="0.6" fill="#06BF8B" points="153.125 544.614665 153.125 437.441498 282.1875 534.772231 399.21875 414.475819 616.875 448.377535 700.546875 393.697348 743.75 459.313573 831.25 371.825273 1121.09375 370.731669 1222.8125 436.347894 1287.34375 282.149766 1400 328.081123 1400 544.614665 1121.09375 544.614665 1050 415.569423 962.5 524.929797 809.375 493.215289 743.75 459.313573 713.125 546.801872 656.25 493.215289 546.875 592.733229 459.375 503.057722 413.4375 633.196568 282.1875 534.772231 98.4375 697.719189 1.09375 592.733229"></polygon>
            <polygon id="Path-13" fill-opacity="0.9" fill="#36B591" points="191.40625 614.605304 280 538.053042 350 576.329173 485.625 548.98908 535.9375 576.329173 667.1875 548.98908 721.875 509.619345 906.71875 562.112324 964.6875 523.836193 1045.625 548.98908 1163.75 523.836193 1226.09375 441.815913 1254.53125 509.619345 1389.0625 701 191.40625 701"></polygon>
            <polygon id="Path-11" fill="#06B584" points="2.1875 545.708268 43.75 481.185647 109.375 590.546022 196.875 568.673947 262.5 678.034321 390.46875 513.99376 486.71875 616.792512 610.3125 492.121685 678.125 546.801872 700 612.418097 765.625 546.801872 831.25 452.75195 900.15625 521.648986 962.5 634.290172 1071.875 568.673947 1137.5 590.546022 1159.375 513.99376 1250.15625 513.99376 1342.03125 353.234009 1397.8125 341.204368 1397.8125 699.906396 2.1875 699.906396"></polygon>
        </g>
        <g id="Group-2" transform="translate(332.000000, 198.000000)">
            <path d="M58.1791161,120.931599 C65.9397696,131.796513 76.630586,168.458112 100.67341,170.694654 C116.70196,172.185682 133.476023,159.698323 150.995601,133.232578 L145.963382,133.232578 C137.230233,145.039434 128.097688,152.494573 118.565745,155.597996 C94.5229204,163.425893 85.6638347,149.385643 80.5445341,136.587391 C64.8887415,97.4479096 62.6521997,100.243587 62.6521997,95.2113678 C62.2794427,90.3655273 62.6521997,87.3834715 63.7704706,86.2652006 C65.7831312,84.2525401 72.4697563,78.7175952 85.5767532,74.5233562 C89.6931453,73.2061107 91.6692215,73.7971828 109.619578,67.8137308 C124.716235,62.7815117 146.493173,63.4891371 157.705226,65.0180535 C194.608166,70.0502726 200.199521,80.6738461 237.10246,101.361858 C246.917443,106.864197 254.435659,106.953212 260.586149,106.953212 C278.144798,106.953212 309.501075,90.8327658 309.790069,62.2223763 C310.349204,6.86796668 273.446265,26.4377074 266.736639,32.0290619 C258.353818,39.0147463 253.845916,14.943627 259.467878,10.7819148 C302.521308,-21.0888058 337.187706,24.2011656 337.187706,62.2223763 C337.187706,104.727299 329.918945,115.340244 326.564132,123.16814 C307.003768,168.808991 298.204938,175.491802 284.628974,195.855749 C277.919348,205.920187 271.417221,216.512273 267.85491,226.049063 C262.902263,239.307973 261.970371,258.504957 265.059233,283.640015 L225.360616,283.640015 C203.740712,254.937728 183.984592,240.586585 166.092258,240.586585 C150.977813,240.586585 137.974128,251.975565 130.307589,272.457306 C129.368232,274.966871 128.622718,278.69444 128.071047,283.640015 L96.7594622,283.640015 C94.8051136,273.155848 92.7549503,265.980277 90.6089722,262.1133 C85.7205785,253.304587 77.672307,247.29621 70.480096,247.29621 C57.8063591,247.29621 47.741921,259.410812 40.2867817,283.640015 L1.7064356,283.640015 C-0.568811866,241.141401 -0.568811866,214.302899 1.7064356,203.12451 C10.2798458,161.002973 29.1040727,133.605335 58.1791161,120.931599 Z M203.154556,137.865754 L187.058073,132.63569 C183.336496,144.089528 190.795138,156.778418 203.717416,160.977121 C216.639694,165.175824 230.132204,159.294375 233.853782,147.840538 L219.207585,143.0817 C219.209276,143.153267 219.210126,143.225043 219.210126,143.297017 C219.210126,148.237848 215.20479,152.243184 210.263959,152.243184 C205.323127,152.243184 201.317791,148.237848 201.317791,143.297017 C201.317791,141.254407 202.002348,139.371684 203.154556,137.865754 Z" id="Gradle" fill="#000000"></path>
            <g id="Kotlin" transform="translate(497.000000, 44.000000)">
                <polyline id="Path-5" fill="url(#linearGradient-2)" points="239.008264 239.008264 0 239.008264 0 239.008264"></polyline>
                <polygon id="Path-6" fill="url(#linearGradient-3)" points="239.008264 239.008264 119.504132 119.504132 0 239.008264"></polygon>
                <polygon id="Path-7" fill="url(#linearGradient-4)" points="0 239.008264 239.008264 0 119.504132 0 0 119.504132"></polygon>
                <polygon id="Path-8" fill="url(#linearGradient-5)" points="0 0 0 119.504132 119.504132 0"></polygon>
            </g>
            <text id="+" font-family="Aclonica-Regular, Aclonica" font-size="120" font-weight="normal" fill="#2D3E4F">
                <tspan x="377" y="204">+</tspan>
            </text>
        </g>
    </g>
</svg>