<?xml version="1.0" encoding="UTF-8"?>
<svg width="600px" height="600px" viewBox="0 0 600 600" version="1.1" xmlns="http://www.w3.org/2000/svg" xmlns:xlink="http://www.w3.org/1999/xlink">
    <!-- Generator: Sketch 55.2 (78181) - https://sketchapp.com -->
    <title>xin-logo</title>
    <desc>Created with Sketch.</desc>
    <g id="页面1" stroke="none" stroke-width="1" fill="none" fill-rule="evenodd">
        <g id="xinthink-logo">
            <g id="xin-logo">
                <circle id="椭圆形" fill="#292929" fill-rule="evenodd" cx="300" cy="300" r="300"></circle>
                <path d="M434.296875,293.992188 C437.812518,293.992188 422.461109,293.406256 388.242188,292.234375 C392.226582,344.265885 402.421793,398.757528 418.828125,455.710938 C420.937511,462.976599 421.992188,468.718729 421.992188,472.9375 C421.992188,481.843795 418.828157,486.296875 412.5,486.296875 C407.109348,486.296875 401.835963,477.859459 396.679688,460.984375 C380.038979,406.374727 369.257837,349.890917 364.335938,291.53125 C343.476458,291.53125 321.796988,292.703113 299.296875,295.046875 C299.531251,301.843784 299.648438,310.046827 299.648438,319.65625 C299.648438,361.375209 298.007829,408.484113 294.726562,460.984375 C293.320305,480.437597 288.867225,490.164062 281.367188,490.164062 C275.039031,490.164062 271.875,483.484442 271.875,470.125 C271.875,453.718668 272.753897,429.402505 274.511719,397.175781 C276.26954,364.949058 277.148438,340.632895 277.148438,324.226562 C277.148438,316.257773 276.738285,304.128988 275.917969,287.839844 C275.097652,271.5507 274.6875,259.539101 274.6875,251.804688 C274.6875,223.679547 286.054574,208.093765 308.789062,205.046875 C320.976623,203.406242 338.437386,202.585938 361.171875,202.585938 C366.562527,202.585938 374.648384,202.703124 385.429688,202.9375 C396.210991,203.171876 404.414034,203.289062 410.039062,203.289062 C423.398504,203.289062 430.078125,198.367237 430.078125,188.523438 C430.078125,177.273381 417.422002,171.648438 392.109375,171.648438 C388.828109,171.648438 384.667994,171.765624 379.628906,172 C374.589819,172.234376 371.484381,172.351562 370.3125,172.351562 C361.640582,172.351562 348.632899,172.527342 331.289062,172.878906 C313.945226,173.230471 301.05473,173.40625 292.617188,173.40625 C277.14836,173.40625 269.414062,170.359405 269.414062,164.265625 C269.414062,156.062459 279.492087,151.492192 299.648438,150.554688 C314.648512,149.851559 334.804561,149.5 360.117188,149.5 L379.101562,149.5 C402.53918,149.5 418.242148,150.78905 426.210938,153.367188 C442.851646,158.523463 451.171875,170.476469 451.171875,189.226562 C451.171875,214.539189 438.750124,227.195312 413.90625,227.195312 C407.343717,227.195312 397.382879,226.78516 384.023438,225.964844 C370.663996,225.144527 360.585971,224.734375 353.789062,224.734375 C334.804593,224.734375 320.156302,225.671866 309.84375,227.546875 C301.171832,229.187508 296.835938,239.03116 296.835938,257.078125 C296.835938,261.531272 297.187496,266.453098 297.890625,271.84375 C326.250142,269.499988 351.913948,268.328125 374.882812,268.328125 C393.39853,268.328125 407.343703,268.679684 416.71875,269.382812 C439.921991,271.726574 451.523438,276.882773 451.523438,284.851562 C451.523438,290.945343 445.781307,293.992188 434.296875,293.992188 Z M241.289062,402.273438 C239.882805,440.945506 224.179838,460.28125 194.179688,460.28125 C163.476409,460.28125 147.773441,440.945506 147.070312,402.273438 C146.835936,393.835895 146.71875,373.328288 146.71875,340.75 L147.070312,208.914062 C147.070312,177.742032 159.60925,162.15625 184.6875,162.15625 L206.132812,162.15625 C220.429759,162.15625 230.273411,166.843703 235.664062,176.21875 C239.648457,183.250035 241.640625,194.148364 241.640625,208.914062 C241.640625,218.289109 241.874998,232.410062 242.34375,251.277344 C242.812502,270.144626 243.046875,284.265578 243.046875,293.640625 C243.046875,340.047107 242.460943,376.257682 241.289062,402.273438 Z M205.078125,184.65625 L186.09375,184.65625 C174.374941,184.65625 168.632811,192.742107 168.867188,208.914062 L169.570312,280.28125 C177.773479,279.578121 185.976521,279.226562 194.179688,279.226562 C202.382854,279.226562 210.585896,279.578121 218.789062,280.28125 L219.492188,208.914062 C219.726564,192.742107 214.921924,184.65625 205.078125,184.65625 Z M219.84375,304.539062 C211.406208,303.601558 202.851606,303.132812 194.179688,303.132812 C185.742145,303.132812 177.187543,303.601558 168.515625,304.539062 C168.281249,308.99221 168.164062,313.914036 168.164062,319.304688 C168.164062,335.242267 168.749994,361.609191 169.921875,398.40625 C170.625004,425.35951 179.296792,438.835938 195.9375,438.835938 C210.00007,438.835938 217.499995,425.35951 218.4375,398.40625 C219.609381,370.281109 220.195312,342.742322 220.195312,315.789062 L219.84375,304.539062 Z" id="昕" fill="#FFFFFF" fill-rule="nonzero"></path>
            </g>
        </g>
    </g>
</svg>